<svg width="122" height="122" viewBox="0 0 122 122" fill="none" xmlns="http://www.w3.org/2000/svg">
<path d="M61 1C27.8629 1 1 27.8629 1 61C1 94.1371 27.8629 121 61 121C94.1371 121 121 94.1371 121 61C121 27.8629 94.1371 1 61 1Z" stroke="white"/>
<path d="M103.43 18.57L61 61" stroke="white" stroke-miterlimit="10"/>
<path d="M18.57 18.57L61 61" stroke="white" stroke-miterlimit="10"/>
<path d="M61 61V121" stroke="white" stroke-miterlimit="10"/>
<path d="M61 121L18.57 18.57" stroke="white" stroke-miterlimit="10"/>
<path d="M18.57 18.57L61 1" stroke="white" stroke-miterlimit="10"/>
<path d="M103.43 18.57L61 1" stroke="white" stroke-miterlimit="10"/>
<path d="M61 121L103.43 18.57" stroke="white" stroke-miterlimit="10"/>
<path d="M40.5 71L61 41" stroke="white" stroke-miterlimit="10"/>
<path d="M81.5 71L61 40.96" stroke="white" stroke-miterlimit="10"/>
<path d="M1 61L18.57 18.57" stroke="white" stroke-miterlimit="10"/>
<path d="M121 61L103.43 18.57" stroke="white" stroke-miterlimit="10"/>
<path d="M121 61L61 121" stroke="white" stroke-miterlimit="10"/>
<path d="M18.57 18.57H103.43" stroke="white" stroke-miterlimit="10"/>
<path d="M61 121L1 61" stroke="white" stroke-miterlimit="10"/>
<path d="M41 71L1 61" stroke="white" stroke-miterlimit="10"/>
<path d="M81 71L121 61" stroke="white" stroke-miterlimit="10"/>
<path d="M61 41V1" stroke="white" stroke-miterlimit="10"/>
</svg>
